SplineFontDB: 3.2
FontName: Roland
FullName: Roland
FamilyName: Roland
Weight: Bold
Copyright: Copyright (c) 2020, Roland Bernard
UComments: "2020-8-28: Created with FontForge (http://fontforge.org)"
Version: 001.000
ItalicAngle: 0
UnderlinePosition: -100
UnderlineWidth: 50
Ascent: 800
Descent: 200
InvalidEm: 0
LayerCount: 2
Layer: 0 0 "Back" 1
Layer: 1 0 "Fore" 0
XUID: [1021 36 1614478912 15507762]
FSType: 0
OS2Version: 0
OS2_WeightWidthSlopeOnly: 0
OS2_UseTypoMetrics: 1
CreationTime: 1598631002
ModificationTime: 1599853772
PfmFamily: 17
TTFWeight: 1000
TTFWidth: 5
LineGap: 90
VLineGap: 0
OS2TypoAscent: 0
OS2TypoAOffset: 1
OS2TypoDescent: 0
OS2TypoDOffset: 1
OS2TypoLinegap: 90
OS2WinAscent: 0
OS2WinAOffset: 1
OS2WinDescent: 0
OS2WinDOffset: 1
HheadAscent: 0
HheadAOffset: 1
HheadDescent: 0
HheadDOffset: 1
OS2CapHeight: 750
OS2XHeight: 500
OS2Vendor: 'PfEd'
MarkAttachClasses: 1
DEI: 91125
Encoding: UnicodeBmp
UnicodeInterp: none
NameList: AGL For New Fonts
DisplaySize: -48
AntiAlias: 1
FitToEm: 0
WinInfo: 0 30 14
BeginPrivate: 1
BlueValues 23 [-20 0 500 520 750 770]
EndPrivate
BeginChars: 65536 105

StartChar: X
Encoding: 88 88 0
Width: 1015
Flags: MW
LayerCount: 2
Fore
SplineSet
30 750 m 1
 235.0625 750 l 1
 507.53125 477.53125 l 1
 780 750 l 1
 985.0625 750 l 1
 610.0625 375 l 1
 985.0625 0 l 1
 780 0 l 1
 507.53125 272.46875 l 1
 235.0625 0 l 1
 30 0 l 1
 405 375 l 1
 30 750 l 1
EndSplineSet
EndChar

StartChar: Q
Encoding: 81 81 2
Width: 1316
Flags: MW
LayerCount: 2
Fore
SplineSet
424 770 m 2
 819.291015625 770 l 2
 1036.5546875 770 1214.29101562 592.263671875 1214.29101562 375 c 2
 1214.29101562 374 l 2
 1214.29101562 291.453125 1188.59082031 215.529296875 1144.83984375 151.982421875 c 1
 1296.82226562 0 l 1
 1091.75976562 0 l 1
 1042.30859375 49.451171875 l 1
 978.75390625 5.6953125 902.848632812 -20 820.291015625 -20 c 2
 425 -20 l 2
 207.9453125 -20 30.107421875 157.020507812 30.0009765625 374 c 2
 30 375 l 2
 29.892578125 592.061523438 207.01171875 769.999023438 424 770 c 2
425 629.998046875 m 2
 288.802734375 629.998046875 179.994140625 511.197265625 180.001953125 375 c 2
 180.001953125 374 l 2
 180.009765625 237.877929688 288.862304688 120.001953125 425 120.001953125 c 2
 820.291015625 120.001953125 l 2
 863.58984375 120.001953125 903.594726562 132.20703125 938.7109375 153.048828125 c 1
 797.177734375 294.58203125 l 1
 1002.24023438 294.58203125 l 1
 1037.0546875 259.767578125 l 1
 1054.45703125 294.754882812 1064.2890625 333.13671875 1064.2890625 374 c 2
 1064.2890625 375 l 2
 1064.30273438 511.150390625 956.422851562 629.998046875 820.291015625 629.998046875 c 2
 425 629.998046875 l 2
EndSplineSet
EndChar

StartChar: e
Encoding: 101 101 3
Width: 890
Flags: MW
LayerCount: 2
Fore
SplineSet
310 520 m 2
 580.0546875 520 l 2
 728.258789062 519.985351562 850 398.209960938 850 250 c 2
 850 180 l 1
 209.875 180 l 1
 209.919921875 179.927734375 l 2
 231.243164062 144.813476562 267.794921875 120.001953125 310 120.001953125 c 2
 605 120.001953125 l 2
 639.805664062 120.001953125 670.758789062 136.881835938 692.509765625 162.490234375 c 1
 795.583984375 59.4140625 l 1
 746.612304688 10.4423828125 681.114257812 -20 607 -20 c 2
 310 -20 l 2
 161.771484375 -20 39.96875 101.771484375 40 250 c 2
 40 250.115234375 l 2
 40.03125 398.291015625 161.810546875 520.014648438 310 520 c 2
308 379.998046875 m 2
 265.779296875 380.009765625 231.220703125 355.1640625 209.89453125 320.033203125 c 2
 209.875 320 l 1
 680.125 320 l 1
 680.111328125 320.0234375 l 2
 658.794921875 355.142578125 622.258789062 379.986328125 580.05859375 379.998046875 c 2
 308 379.998046875 l 2
EndSplineSet
EndChar

StartChar: exclam
Encoding: 33 33 4
Width: 300
Flags: MW
LayerCount: 2
Fore
SplineSet
75 250 m 5
 75 750 l 5
 225 750 l 5
 225 250 l 5
 75 250 l 5
50 80 m 4
 50 135.228515625 94.771484375 180 150 180 c 4
 205.228515625 180 250 135.228515625 250 80 c 4
 250 24.771484375 205.228515625 -20 150 -20 c 4
 94.771484375 -20 50 24.771484375 50 80 c 4
EndSplineSet
EndChar

StartChar: quotedbl
Encoding: 34 34 5
Width: 500
Flags: MW
LayerCount: 2
Fore
SplineSet
50 500 m 5
 50 750 l 5
 200 750 l 5
 200 500 l 5
 50 500 l 5
300 500 m 1
 300 750 l 1
 450 750 l 1
 450 500 l 1
 300 500 l 1
EndSplineSet
EndChar

StartChar: numbersign
Encoding: 35 35 6
Width: 1092
Flags: MW
LayerCount: 2
Fore
SplineSet
345 750 m 1
 497.84375 750 l 1
 437.84375 570 l 1
 785 570 l 1
 845 750 l 1
 997.84375 750 l 1
 937.84375 570 l 1
 1062.84375 570 l 1
 1016.17773438 430 l 1
 891.17578125 430 l 1
 854.509765625 320 l 1
 979.509765625 320 l 1
 932.84375 180 l 1
 807.84375 180 l 1
 747.84375 0 l 1
 595 0 l 1
 655 180 l 1
 307.84375 180 l 1
 247.84375 0 l 1
 95 0 l 1
 155 180 l 1
 30 180 l 1
 76.666015625 320 l 1
 201.66796875 320 l 1
 238.333984375 430 l 1
 113.333984375 430 l 1
 160 570 l 1
 285 570 l 1
 345 750 l 1
391.17578125 430 m 1
 354.509765625 320 l 1
 701.66796875 320 l 1
 738.333984375 430 l 1
 391.17578125 430 l 1
EndSplineSet
EndChar

StartChar: zero
Encoding: 48 48 7
Width: 850
Flags: HMW
LayerCount: 2
Fore
SplineSet
425 770 m 0
 642.263671875 770 820.025390625 592.263671875 820 375 c 2
 820 374.907226562 l 2
 819.974609375 157.685546875 642.233398438 -20 425 -20 c 0
 207.77734375 -20 30.0341796875 157.66796875 30 374.875976562 c 2
 30 375 l 2
 29.9658203125 592.263671875 207.736328125 770 425 770 c 0
425 630 m 0
 288.801757812 630 179.970703125 511.198242188 180 375 c 2
 180 374.890625 l 2
 180.029296875 238.73828125 288.837890625 120 425 120 c 0
 561.16796875 120 669.975585938 238.749023438 670 374.909179688 c 2
 670 375 l 2
 670.024414062 511.198242188 561.198242188 630 425 630 c 0
EndSplineSet
EndChar

StartChar: one
Encoding: 49 49 8
Width: 466
Flags: HMW
LayerCount: 2
Fore
SplineSet
30 666.47265625 m 1
 416.37109375 770 l 1
 416.37109375 0 l 1
 266.37109375 0 l 1
 266.37109375 583.833984375 l 1
 66.494140625 530.27734375 l 1
 30 666.47265625 l 1
EndSplineSet
EndChar

StartChar: two
Encoding: 50 50 9
Width: 880
Flags: HMW
LayerCount: 2
Fore
SplineSet
305 770 m 6
 575 770 l 6
 723.228515625 770 845 648.23046875 845 500.001953125 c 4
 845 405.357421875 795.349609375 321.505859375 720.87109375 273.244140625 c 6
 515.09375 140 l 5
 825 140 l 5
 825 0 l 5
 35 0 l 5
 643.19921875 393.986328125 l 6
 674.665039062 418.353515625 694.998046875 458.342773438 694.998046875 500.001953125 c 4
 694.998046875 567.1640625 642.162109375 629.998046875 575 629.998046875 c 6
 305 629.998046875 l 6
 237.837890625 629.998046875 185.001953125 567.1640625 185.001953125 500.001953125 c 5
 35 500.001953125 l 5
 35 648.23046875 156.771484375 770 305 770 c 6
EndSplineSet
EndChar

StartChar: three
Encoding: 51 51 10
Width: 892
Flags: HMW
LayerCount: 2
Fore
SplineSet
267.5 770 m 2
 614.620117188 770 l 2
 742.083984375 770 847.028320312 664.977539062 847 537.5 c 2
 847 537.41015625 l 2
 846.986328125 474.467773438 811.362304688 417.032226562 770.1015625 375 c 5
 811.3828125 332.947265625 847 275.477539062 847 212.5 c 2
 847 212.404296875 l 2
 847 84.9541015625 742.02734375 -20 614.57421875 -20 c 2
 267.5 -20 l 2
 139.982421875 -20 35 84.982421875 35 212.5 c 1
 185 212.5 l 1
 185 166.047851562 221.047851562 120 267.5 120 c 2
 614.586914062 120 l 2
 660.975585938 120 696.986328125 166.033203125 697 212.43359375 c 2
 697 212.5 l 2
 697.013671875 258.952148438 660.952148438 305 614.5 305 c 2
 219.5 305 l 1
 219.5 445 l 1
 614.5 445 l 2
 660.923828125 445 696.977539062 490.993164062 697 537.416992188 c 2
 697 537.5 l 2
 697.022460938 583.938476562 660.97265625 630 614.540039062 630 c 2
 267.5 630 l 2
 221.047851562 630 185 583.952148438 185 537.5 c 1
 35 537.5 l 1
 35 665.017578125 139.982421875 770 267.5 770 c 2
EndSplineSet
EndChar

StartChar: four
Encoding: 52 52 11
Width: 860
Flags: HMW
LayerCount: 2
Fore
SplineSet
65.50390625 750 m 1
 216.044921875 750 l 1
 190.177734375 454.359375 l 2
 190.069335938 452.90234375 190 451.446289062 190 450 c 0
 190 421.497070312 211.497070312 390 240 390 c 2
 660 390 l 1
 660 750 l 1
 810 750 l 1
 810 0 l 1
 660 0 l 1
 660 250 l 1
 240 250 l 2
 130.431640625 250 40 340.431640625 40 450 c 0
 40 455.870117188 40.275390625 461.680664062 40.783203125 467.4296875 c 2
 65.50390625 750 l 1
EndSplineSet
EndChar

StartChar: five
Encoding: 53 53 12
Width: 860
Flags: HMW
LayerCount: 2
Fore
SplineSet
70.119140625 750 m 1
 770.09765625 750 l 1
 770.09765625 610 l 1
 206.046875 610 l 1
 200 516.896484375 l 1
 213.287109375 518.9375 226.880859375 520 240.705078125 520 c 2
 550.158203125 520 l 2
 698.359375 520 820.09765625 398.208984375 820.09765625 250 c 2
 820.09765625 249.927734375 l 2
 820.09765625 101.74609375 698.326171875 -20 550.140625 -20 c 2
 240.705078125 -20 l 2
 166.590820312 -20 99.0908203125 10.4423828125 50.119140625 59.4140625 c 1
 153.19140625 162.486328125 l 1
 174.942382812 136.877929688 205.899414062 120 240.705078125 120 c 2
 550.166015625 120 l 2
 617.263671875 120 670.09765625 182.798828125 670.09765625 249.90234375 c 2
 670.09765625 250 l 2
 670.09765625 317.145507812 617.288085938 380 550.150390625 380 c 2
 240.705078125 380 l 2
 226.36328125 380 212.677734375 377.127929688 200.017578125 371.966796875 c 1
 50 371.966796875 l 1
 70.119140625 750 l 1
EndSplineSet
EndChar

StartChar: six
Encoding: 54 54 13
Width: 890
Flags: HMW
LayerCount: 2
Fore
SplineSet
583.8359375 771.361328125 m 1
 669.974609375 657.08203125 l 1
 459.91015625 516 l 1
 459.954101562 516 459.999023438 516 460.04296875 516 c 2
 580 516 l 2
 729.1171875 516 850.030273438 399.1171875 850 250 c 2
 850 249.888671875 l 2
 849.969726562 100.823242188 729.080078125 -20 580 -20 c 2
 310 -20 l 2
 160.935546875 -20 40.04296875 100.797851562 40 249.841796875 c 2
 40 250 l 2
 39.9736328125 342.216796875 86.2431640625 423.62109375 156.79296875 472.330078125 c 2
 583.8359375 771.361328125 l 1
310 380 m 2
 243.725585938 380 189.952148438 316.274414062 190 250 c 2
 190 249.82421875 l 2
 190.047851562 183.61328125 243.784179688 120 310 120 c 2
 580 120 l 2
 646.235351562 120 699.96875 183.651367188 700 249.883789062 c 2
 700 250 l 2
 700.03125 316.274414062 646.274414062 380 580 380 c 2
 310 380 l 2
EndSplineSet
EndChar

StartChar: nine
Encoding: 57 57 14
Width: 890
Flags: HMW
LayerCount: 2
Fore
SplineSet
306.1640625 -21.3603515625 m 1
 220.025390625 92.9189453125 l 1
 430.08984375 234.000976562 l 1
 430.045898438 234.000976562 430.000976562 234.000976562 429.95703125 234.000976562 c 2
 310 234.000976562 l 2
 160.8828125 234.000976562 39.9697265625 350.883789062 40 500.000976562 c 2
 40 500.111328125 l 2
 40.0302734375 649.177734375 160.919921875 770.000976562 310 770.000976562 c 2
 580 770.000976562 l 2
 729.064453125 770.000976562 849.95703125 649.203125 850 500.159179688 c 2
 850 500.000976562 l 2
 850.026367188 407.784179688 803.756835938 326.379882812 733.20703125 277.670898438 c 2
 306.1640625 -21.3603515625 l 1
580 370.000976562 m 2
 646.274414062 370.000976562 700.047851562 433.7265625 700 500.000976562 c 2
 700 500.176757812 l 2
 699.952148438 566.387695312 646.215820312 630.000976562 580 630.000976562 c 2
 310 630.000976562 l 2
 243.764648438 630.000976562 190.03125 566.349609375 190 500.1171875 c 2
 190 500.000976562 l 2
 189.96875 433.7265625 243.725585938 370.000976562 310 370.000976562 c 2
 580 370.000976562 l 2
EndSplineSet
EndChar

StartChar: seven
Encoding: 55 55 15
Width: 830
Flags: HMW
LayerCount: 2
Fore
SplineSet
30 750.000976562 m 5
 800 750.000976562 l 5
 220.15234375 -19.4833984375 l 5
 104.349609375 67.7802734375 l 5
 512.94140625 610.000976562 l 5
 30 610.000976562 l 5
 30 750.000976562 l 5
EndSplineSet
EndChar

StartChar: eight
Encoding: 56 56 16
Width: 880
Flags: HMW
LayerCount: 2
Fore
SplineSet
277.5 770 m 2
 602.5 770 l 2
 730.90625 770 835.038085938 665.90625 835 537.5 c 2
 835 537.399414062 l 2
 834.981445312 474.192382812 799.711914062 416.89453125 758.759765625 375 c 1
 799.734375 333.083984375 835.014648438 275.747070312 835 212.5 c 2
 835 212.372070312 l 2
 834.969726562 84.0244140625 730.86328125 -20 602.5 -20 c 2
 277.5 -20 l 2
 149.140625 -20 45.0380859375 84.0185546875 45 212.360351562 c 2
 45 212.5 l 2
 44.9814453125 275.747070312 80.2666015625 333.083984375 121.240234375 375 c 1
 80.3125 416.869140625 45.0400390625 474.123046875 45 537.28515625 c 2
 45 537.5 l 2
 44.9189453125 665.90625 149.09375 770 277.5 770 c 2
277.5 630 m 2
 231.936523438 630 194.963867188 583.063476562 195 537.5 c 2
 195 537.365234375 l 2
 195.036132812 491.84375 231.981445312 445 277.5 445 c 2
 602.5 445 l 2
 648 445 684.947265625 491.8046875 685 537.30859375 c 2
 685 537.5 l 2
 685.052734375 583.063476562 648.063476562 630 602.5 630 c 2
 277.5 630 l 2
277.5 305 m 2
 231.936523438 305 194.966796875 258.063476562 195 212.5 c 2
 195 212.375976562 l 2
 195.033203125 166.8515625 231.977539062 120 277.5 120 c 2
 602.5 120 l 2
 648.016601562 120 684.9609375 166.83984375 685 212.358398438 c 2
 685 212.5 l 2
 685.0390625 258.063476562 648.063476562 305 602.5 305 c 2
 277.5 305 l 2
EndSplineSet
EndChar

StartChar: R
Encoding: 82 82 17
Width: 870
Flags: HMW
LayerCount: 2
Fore
SplineSet
50 750 m 1
 608 750 l 2
 730.856445312 750 830.469726562 650.426757812 830.498046875 527.580078125 c 1
 830.49609375 527.2109375 l 2
 830.35546875 404.4609375 730.787109375 305 608 305 c 2
 525.5 305 l 1
 830.5 0 l 1
 625.4375 0 l 1
 320.4375 305 l 1
 200 305 l 1
 200 0 l 1
 50 0 l 1
 50 750 l 1
200 610 m 1
 200 445 l 1
 608 445 l 2
 648.01953125 445 680.481445312 487.4140625 680.5 527.435546875 c 2
 680.5 527.5 l 2
 680.518554688 567.541015625 648.041015625 610 608 610 c 2
 200 610 l 1
EndSplineSet
EndChar

StartChar: o
Encoding: 111 111 18
Width: 870
Flags: HMW
LayerCount: 2
Fore
SplineSet
310 520 m 2
 560.08203125 520 l 2
 709.161132812 520 830.036132812 399.08984375 830 250 c 2
 830 249.876953125 l 2
 829.963867188 100.866210938 709.157226562 -20 560.150390625 -20 c 2
 310 -20 l 2
 160.918945312 -20 40.029296875 100.825195312 40 249.891601562 c 2
 40 250 l 2
 39.970703125 399.1171875 160.8828125 520 310 520 c 2
310 380 m 2
 243.725585938 380 189.96484375 316.274414062 190 250 c 2
 190 249.87109375 l 2
 190.03515625 183.643554688 243.768554688 120 310 120 c 2
 560.078125 120 l 2
 626.275390625 120 679.967773438 183.673828125 680 249.877929688 c 2
 680 250 l 2
 680.032226562 316.23046875 626.345703125 380 560.1328125 380 c 2
 310 380 l 2
EndSplineSet
EndChar

StartChar: l
Encoding: 108 108 19
Width: 430
Flags: HMW
LayerCount: 2
Fore
SplineSet
40 750 m 5
 290 750 l 5
 290 140 l 5
 390 140 l 5
 390 0 l 5
 40 0 l 5
 40 140 l 5
 140 140 l 5
 140 610 l 5
 40 610 l 5
 40 750 l 5
EndSplineSet
EndChar

StartChar: a
Encoding: 97 97 20
Width: 860
Flags: HMW
LayerCount: 2
Fore
SplineSet
310 519.9375 m 2
 540.08203125 519.9375 l 2
 601.333984375 519.9375 642.641601562 500 660 481.86328125 c 1
 660 500 l 1
 810 500 l 1
 810 0 l 1
 660 0 l 1
 660 18.005859375 l 1
 639.684570312 0 598.70703125 -20.0625 540.150390625 -20.0625 c 2
 310 -20.0625 l 2
 160.918945312 -20.0625 40 100.762695312 40 249.830078125 c 2
 40 249.9375 l 2
 40 399.0546875 160.8828125 519.9375 310 519.9375 c 2
310 379.9375 m 2
 243.725585938 379.9375 190 316.211914062 190 249.9375 c 2
 190 249.810546875 l 2
 190 183.58203125 243.768554688 119.9375 310 119.9375 c 2
 540.078125 119.9375 l 2
 606.275390625 119.9375 659.966796875 183.612304688 660 249.81640625 c 2
 660 249.9375 l 2
 660.033203125 316.16796875 606.346679688 379.9375 540.1328125 379.9375 c 2
 310 379.9375 l 2
EndSplineSet
EndChar

StartChar: n
Encoding: 110 110 21
Width: 870
Flags: HMW
LayerCount: 2
Fore
SplineSet
319.91796875 519.9375 m 2
 550 519.9375 l 2
 699.095703125 519.9375 819.965820312 399.087890625 820 250 c 2
 820 0 l 1
 670 0 l 1
 670 250 l 2
 669.965820312 316.251953125 616.252929688 379.9375 550 379.9375 c 2
 319.8671875 379.9375 l 2
 253.674804688 379.9375 200.000976562 316.208007812 200 250 c 2
 200 0 l 1
 50 0 l 1
 50 500 l 1
 200 500 l 1
 200 481.86328125 l 1
 217.358398438 500 258.666015625 519.9375 319.91796875 519.9375 c 2
EndSplineSet
EndChar

StartChar: r
Encoding: 114 114 22
Width: 489
Flags: HMW
LayerCount: 2
Fore
SplineSet
50 500 m 1
 200 500 l 1
 200 481.86328125 l 1
 217.358398438 500 258.666015625 519.9375 319.91796875 519.9375 c 2
 320 519.9375 l 2
 370.975585938 519.9453125 418.65234375 505.814453125 459.33203125 481.26171875 c 1
 387.15234375 356.240234375 l 1
 367.986328125 370.959960938 344.875 379.9375 320 379.9375 c 2
 319.8671875 379.9375 l 2
 253.674804688 379.9375 200.000976562 316.208007812 200 250 c 2
 200 0 l 1
 50 0 l 1
 50 500 l 1
EndSplineSet
EndChar

StartChar: d
Encoding: 100 100 23
Width: 860
Flags: HMW
LayerCount: 2
Fore
SplineSet
310 519.9375 m 2
 540.08203125 519.9375 l 2
 601.333984375 519.9375 642.641601562 500 660 481.86328125 c 1
 660 750 l 1
 810 750 l 1
 810 0 l 1
 660 0 l 1
 660 18.005859375 l 1
 639.684570312 0 598.70703125 -20.0625 540.150390625 -20.0625 c 2
 310 -20.0625 l 2
 160.918945312 -20.0625 40 100.762695312 40 249.830078125 c 2
 40 249.9375 l 2
 40 399.0546875 160.8828125 519.9375 310 519.9375 c 2
310 379.9375 m 2
 243.725585938 379.9375 190 316.211914062 190 249.9375 c 2
 190 249.810546875 l 2
 190 183.58203125 243.768554688 119.9375 310 119.9375 c 2
 540.078125 119.9375 l 2
 606.275390625 119.9375 659.966796875 183.612304688 660 249.81640625 c 2
 660 249.9375 l 2
 660.033203125 316.16796875 606.346679688 379.9375 540.1328125 379.9375 c 2
 310 379.9375 l 2
EndSplineSet
EndChar

StartChar: B
Encoding: 66 66 24
Width: 875
Flags: HMW
LayerCount: 2
Fore
SplineSet
50 750 m 1
 608 750 l 2
 730.856445312 750 830.469726562 650.426757812 830.498046875 527.580078125 c 2
 830.49609375 527.2109375 l 2
 830.428710938 468.299804688 797.451171875 414.762695312 760.005859375 375 c 1
 797.451171875 335.237304688 830.428710938 281.700195312 830.49609375 222.7890625 c 2
 830.498046875 222.419921875 l 2
 830.469726562 99.5732421875 730.856445312 0 608 0 c 2
 50 0 l 1
 50 750 l 1
200 610 m 1
 200 445 l 1
 608 445 l 2
 648.01953125 445 680.481445312 487.4140625 680.5 527.435546875 c 2
 680.5 527.5 l 2
 680.518554688 567.541015625 648.041015625 610 608 610 c 2
 200 610 l 1
200 305 m 1
 200 140 l 1
 608 140 l 2
 648.041015625 140 680.518554688 182.458984375 680.5 222.5 c 2
 680.5 222.564453125 l 2
 680.481445312 262.5859375 648.01953125 305 608 305 c 2
 200 305 l 1
EndSplineSet
EndChar

StartChar: b
Encoding: 98 98 25
Width: 860
Flags: HMW
LayerCount: 2
Fore
SplineSet
550 519.9375 m 2
 699.1171875 519.9375 820 399.0546875 820 249.9375 c 2
 820 249.830078125 l 2
 820 100.762695312 699.081054688 -20.0625 550 -20.0625 c 2
 319.849609375 -20.0625 l 2
 261.29296875 -20.0625 220.315429688 0 200 18.005859375 c 1
 200 0 l 1
 50 0 l 1
 50 750 l 1
 200 750 l 1
 200 481.86328125 l 1
 217.358398438 500 258.666015625 519.9375 319.91796875 519.9375 c 2
 550 519.9375 l 2
550 379.9375 m 6
 319.8671875 379.9375 l 2
 253.653320312 379.9375 199.966796875 316.16796875 200 249.9375 c 2
 200 249.81640625 l 2
 200.033203125 183.612304688 253.724609375 119.9375 319.921875 119.9375 c 2
 550 119.9375 l 2
 616.231445312 119.9375 670 183.58203125 670 249.810546875 c 2
 670 249.9375 l 2
 670 316.211914062 616.274414062 379.9375 550 379.9375 c 6
EndSplineSet
EndChar

StartChar: c
Encoding: 99 99 26
Width: 780
Flags: HMW
LayerCount: 2
Fore
SplineSet
310 520 m 2
 560.08203125 520 l 2
 634.639648438 520 702.142578125 489.755859375 750.994140625 440.87109375 c 1
 647.2578125 337.134765625 l 1
 625.404296875 362.86328125 594.453125 380 560.1328125 380 c 2
 310 380 l 2
 243.725585938 380 189.96484375 316.274414062 190 250 c 2
 190 249.87109375 l 2
 190.03515625 183.642578125 243.768554688 120 310 120 c 2
 560.078125 120 l 2
 594.358398438 120 625.282226562 137.077148438 647.140625 162.736328125 c 1
 750.876953125 59 l 1
 702.049804688 10.193359375 634.622070312 -20 560.150390625 -20 c 2
 310 -20 l 2
 160.918945312 -20 40.029296875 100.825195312 40 249.892578125 c 2
 40 250 l 2
 39.970703125 399.1171875 160.8828125 520 310 520 c 2
EndSplineSet
EndChar

StartChar: f
Encoding: 102 102 27
Width: 435
Flags: HMW
LayerCount: 2
Fore
SplineSet
255 770 m 2
 405 770 l 1
 405 630 l 1
 255 630 l 1
 255 626.666992188 255 623.333007812 255 620 c 2
 255 500 l 1
 405 500 l 1
 405 360 l 1
 255 360 l 1
 255 0 l 1
 105 0 l 1
 105 360 l 1
 30 360 l 1
 30 500 l 1
 105 500 l 1
 105 620 l 2
 105 702.842773438 172.157226562 770 255 770 c 2
EndSplineSet
EndChar

StartChar: g
Encoding: 103 103 28
Width: 850
Flags: HMW
LayerCount: 2
Fore
SplineSet
300 520 m 2
 530.150390625 520 l 2
 588.70703125 520 629.684570312 499.9375 650 481.931640625 c 1
 650 499.9375 l 1
 800 499.9375 l 1
 800 -50.0625 l 2
 800 -132.905273438 732.842773438 -200.0625 650 -200.0625 c 2
 205 -200.0625 l 2
 122.157226562 -200.0625 55 -132.905273438 55 -50.0625 c 1
 205 -50.0625 l 1
 205 -53.3955078125 205 -56.7294921875 205 -60.0625 c 1
 650 -60.0625 l 1
 650 -56.7294921875 650 -53.3955078125 650 -50.0625 c 2
 650 18.07421875 l 1
 632.641601562 -0.0625 591.333984375 -20 530.08203125 -20 c 2
 300 -20 l 2
 150.8828125 -20 30 100.8828125 30 250 c 2
 30 250.107421875 l 2
 30 399.174804688 150.918945312 520 300 520 c 2
300 380 m 2
 233.768554688 380 180 316.35546875 180 250.126953125 c 2
 180 250 l 2
 180 183.725585938 233.725585938 120 300 120 c 2
 530.1328125 120 l 2
 596.346679688 120 650.033203125 183.76953125 650 250 c 2
 650 250.12109375 l 2
 649.966796875 316.325195312 596.275390625 380 530.078125 380 c 2
 300 380 l 2
EndSplineSet
EndChar

StartChar: h
Encoding: 104 104 29
Width: 870
Flags: HMW
LayerCount: 2
Fore
SplineSet
319.91796875 519.9375 m 6
 550 519.9375 l 6
 699.095703125 519.9375 819.965820312 399.087890625 820 250 c 6
 820 0 l 5
 670 0 l 5
 670 250 l 6
 669.965820312 316.251953125 616.252929688 379.9375 550 379.9375 c 6
 319.8671875 379.9375 l 6
 253.674804688 379.9375 200.000976562 316.208007812 200 250 c 6
 200 0 l 5
 50 0 l 5
 50 750 l 5
 200 750 l 5
 200 481.86328125 l 5
 217.358398438 500 258.666015625 519.9375 319.91796875 519.9375 c 6
EndSplineSet
EndChar

StartChar: i
Encoding: 105 105 30
Width: 360
Flags: HMW
LayerCount: 2
Fore
SplineSet
30 500 m 1
 255 500 l 1
 255 140 l 1
 330 140 l 1
 330 0 l 1
 30 0 l 1
 30 140 l 1
 105 140 l 1
 105 360 l 1
 30 360 l 1
 30 500 l 1
280 670 m 0
 280 725.19140625 235.19140625 770 180 770 c 0
 124.80859375 770 80 725.19140625 80 670 c 0
 80 614.80859375 124.80859375 570 180 570 c 0
 235.19140625 570 280 614.80859375 280 670 c 0
EndSplineSet
EndChar

StartChar: j
Encoding: 106 106 31
Width: 400
Flags: HMW
LayerCount: 2
Fore
SplineSet
70 500 m 1
 325 500 l 1
 325 0 l 2
 325 -110.45703125 235.45703125 -200 125 -200 c 2
 50 -200 l 1
 50 -60 l 1
 125 -60 l 2
 152.614257812 -60 175 -27.6142578125 175 0 c 2
 175 360 l 1
 70 359.9921875 l 1
 70 500 l 1
350 670 m 0
 350 725.19140625 305.19140625 770 250 770 c 0
 194.80859375 770 150 725.19140625 150 670 c 0
 150 614.80859375 194.80859375 570 250 570 c 0
 305.19140625 570 350 614.80859375 350 670 c 0
EndSplineSet
EndChar

StartChar: k
Encoding: 107 107 32
Width: 830
Flags: HMW
LayerCount: 2
Fore
SplineSet
50 750 m 1
 200 750 l 1
 200 318.712890625 l 1
 514 500 l 1
 800 500 l 1
 417.326171875 279.064453125 l 1
 800 0 l 1
 556.646484375 0 l 1
 279.0078125 199.205078125 l 1
 200 153.58984375 l 1
 200 0 l 1
 50 0 l 1
 50 750 l 1
EndSplineSet
EndChar

StartChar: m
Encoding: 109 109 33
Width: 1490
Flags: HMW
LayerCount: 2
Fore
SplineSet
319.91796875 519.9375 m 2
 550 519.9375 l 2
 626.659179688 519.9375 706.333374023 491.333312988 745 426.67578125 c 1
 794.147460938 477.984375 863.340820312 519.9375 940 519.9375 c 2
 1170.08203125 519.9375 l 2
 1319.17773438 519.9375 1440.04785156 399.087890625 1440.08203125 250 c 2
 1440.08203125 0 l 1
 1290.08203125 0 l 1
 1290.08203125 250 l 2
 1290.04785156 316.251953125 1236.33496094 379.9375 1170.08203125 379.9375 c 2
 940 379.9375 l 2
 873.747070312 379.9375 820.034179688 316.251953125 820 250 c 2
 820 0 l 1
 670 0 l 1
 670 250 l 2
 669.965820312 316.251953125 616.252929688 379.9375 550 379.9375 c 2
 319.8671875 379.9375 l 2
 253.674804688 379.9375 200.000976562 316.208007812 200 250 c 2
 200 0 l 1
 50 0 l 1
 50 500 l 1
 200 500 l 1
 200 481.86328125 l 1
 217.358398438 500 258.666015625 519.9375 319.91796875 519.9375 c 2
EndSplineSet
EndChar

StartChar: p
Encoding: 112 112 34
Width: 860
Flags: HMW
LayerCount: 2
Fore
SplineSet
550 -20 m 2
 319.91796875 -20 l 2
 258.666015625 -20 217.358398438 -0.0625 200 18.07421875 c 1
 200 -200.0625 l 1
 50 -200.0625 l 1
 50 499.9375 l 1
 200 499.9375 l 1
 200 481.931640625 l 1
 220.315429688 499.9375 261.29296875 520 319.849609375 520 c 2
 550 520 l 2
 699.081054688 520 820 399.174804688 820 250.107421875 c 2
 820 250 l 2
 820 100.8828125 699.1171875 -20 550 -20 c 2
550 120 m 2
 616.274414062 120 670 183.725585938 670 250 c 2
 670 250.126953125 l 2
 670 316.35546875 616.231445312 380 550 380 c 2
 319.921875 380 l 2
 253.724609375 380 200.033203125 316.325195312 200 250.12109375 c 2
 200 250 l 2
 199.966796875 183.770507812 253.653320312 120 319.8671875 120 c 2
 550 120 l 2
EndSplineSet
EndChar

StartChar: q
Encoding: 113 113 35
Width: 860
Flags: HMW
LayerCount: 2
Fore
SplineSet
310 -20 m 2
 160.8828125 -20 40 100.8828125 40 250 c 2
 40 250.107421875 l 2
 40 399.174804688 160.918945312 520 310 520 c 2
 540.150390625 520 l 2
 598.70703125 520 639.684570312 499.9375 660 481.931640625 c 1
 660 499.9375 l 1
 810 499.9375 l 1
 810 -200.0625 l 1
 660 -200.0625 l 1
 660 18.07421875 l 1
 642.641601562 -0.0625 601.333984375 -20 540.08203125 -20 c 2
 310 -20 l 2
310 120 m 2
 540.1328125 120 l 2
 606.345703125 120 660.033203125 183.770507812 660 250 c 2
 660 250.12109375 l 2
 659.966796875 316.325195312 606.275390625 380 540.078125 380 c 2
 310 380 l 2
 243.768554688 380 190 316.35546875 190 250.126953125 c 2
 190 250 l 2
 190 183.725585938 243.725585938 120 310 120 c 2
EndSplineSet
EndChar

StartChar: s
Encoding: 115 115 36
Width: 645
Flags: HMW
LayerCount: 2
Fore
SplineSet
200 520 m 2
 475 520 l 2
 521.5 520 564 500.75 594.875 469.875 c 1
 491.169921875 366.169921875 l 1
 487.680664062 373.743164062 482.017578125 380 475 380 c 2
 200 380 l 2
 188.06640625 380 180 361.93359375 180 350 c 2
 180 349.766601562 l 2
 180 337.831054688 188.143554688 320 200 320 c 2
 445 320 l 2
 538 320 615 243 615 150 c 2
 615 149.875976562 l 2
 615 56.931640625 537.958984375 -20 445 -20 c 2
 170 -20 l 2
 123.5 -20 81 -0.75 50.125 30.125 c 1
 153.830078125 133.830078125 l 1
 157.319335938 126.256835938 162.982421875 120 170 120 c 2
 445 120 l 2
 456.874023438 120 465 137.883789062 465 149.819335938 c 2
 465 150 l 2
 465 161.93359375 456.93359375 180 445 180 c 2
 200 180 l 2
 107.086914062 180 30 256.85546875 30 349.73828125 c 2
 30 350 l 2
 30 443 107 520 200 520 c 2
EndSplineSet
EndChar

StartChar: t
Encoding: 116 116 37
Width: 510
Flags: HMW
LayerCount: 2
Fore
SplineSet
180 750 m 5
 330 750 l 5
 330 500 l 5
 480 500 l 5
 480 360 l 5
 330 360 l 5
 330 0 l 5
 180 0 l 5
 180 360 l 5
 30 360 l 5
 30 500 l 5
 180 500 l 5
 180 750 l 5
EndSplineSet
EndChar

StartChar: u
Encoding: 117 117 38
Width: 890
Flags: HMW
LayerCount: 2
Fore
SplineSet
50 500 m 1
 200 500 l 1
 200 250 l 2
 200 183.725585938 253.725585938 120 320 120 c 2
 570.258789062 120 l 2
 636.4140625 120 690 183.8125 690 250 c 2
 690 500 l 1
 840 500 l 1
 840 250 l 2
 840 101.012695312 719.327148438 -20 570.388671875 -20 c 2
 320 -20 l 2
 170.8828125 -20 50 100.8828125 50 250 c 2
 50 500 l 1
EndSplineSet
EndChar

StartChar: v
Encoding: 118 118 39
Width: 998
Flags: HMW
LayerCount: 2
Fore
SplineSet
30 500 m 1
 218.06640625 500 l 1
 499.033203125 159.841796875 l 1
 780 500 l 1
 968.06640625 500 l 1
 554.9296875 0 l 1
 443.13671875 0 l 1
 30 500 l 1
EndSplineSet
EndChar

StartChar: w
Encoding: 119 119 40
Width: 1703
Flags: HMW
LayerCount: 2
Fore
SplineSet
30 500 m 5
 218.06640625 500 l 5
 499.033203125 159.841796875 l 5
 780 500 l 5
 923.0859375 500 l 5
 1204.05273438 159.841796875 l 5
 1485.01953125 500 l 5
 1673.0859375 500 l 5
 1259.94921875 0 l 5
 1148.15625 0 l 5
 851.54296875 358.9765625 l 5
 554.9296875 0 l 5
 443.13671875 0 l 5
 30 500 l 5
EndSplineSet
EndChar

StartChar: x
Encoding: 120 120 41
Width: 835
Flags: HMW
LayerCount: 2
Fore
SplineSet
30 500 m 5
 247.318359375 500 l 5
 417.74609375 347.333984375 l 5
 588.173828125 500 l 5
 805.490234375 500 l 5
 526.404296875 250 l 5
 805.4921875 0 l 5
 588.173828125 0 l 5
 417.74609375 152.666015625 l 5
 247.318359375 0 l 5
 30.001953125 0 l 5
 309.087890625 250 l 5
 30 500 l 5
EndSplineSet
EndChar

StartChar: y
Encoding: 121 121 42
Width: 1003
Flags: HMW
LayerCount: 2
Fore
SplineSet
30 500 m 1
 211.25 500 l 1
 492.146484375 125.470703125 l 1
 788.48046875 500 l 1
 973.376953125 500 l 1
 419.525390625 -200 l 1
 234.62890625 -200 l 1
 399.09765625 7.869140625 l 1
 30 500 l 1
EndSplineSet
EndChar

StartChar: z
Encoding: 122 122 43
Width: 855
Flags: HMW
LayerCount: 2
Fore
SplineSet
52.740234375 500 m 1
 820.978515625 500 l 1
 412.478515625 142 l 1
 801.240234375 142 l 1
 801.240234375 0 l 1
 35 0 l 1
 443.5 358 l 1
 52.740234375 358 l 1
 52.740234375 500 l 1
EndSplineSet
EndChar

StartChar: O
Encoding: 79 79 44
Width: 1245
Flags: HMW
LayerCount: 2
Fore
SplineSet
425 770 m 2
 820.258789062 770 l 2
 1037.40527344 770 1215.05078125 592.177734375 1215 375 c 2
 1215 374.829101562 l 2
 1214.94921875 157.702148438 1037.30566406 -20 820.1796875 -20 c 2
 425 -20 l 2
 207.838867188 -20 30.083984375 157.567382812 30 374.69140625 c 2
 30 375 l 2
 29.916015625 592.263671875 207.736328125 770 425 770 c 2
425 630 m 2
 288.801757812 630 179.94140625 511.198242188 180 375 c 2
 180 374.780273438 l 2
 180.05859375 238.673828125 288.875 120 425 120 c 2
 820.239257812 120 l 2
 956.250976562 120 1064.93847656 238.750976562 1065 374.775390625 c 2
 1065 375 l 2
 1065.06054688 511.095703125 956.361328125 630 820.305664062 630 c 2
 425 630 l 2
EndSplineSet
EndChar

StartChar: C
Encoding: 67 67 45
Width: 1129
Flags: HMW
LayerCount: 2
Fore
SplineSet
425 770 m 2
 820.259765625 770 l 2
 928.841796875 770 1027.54589844 725.537109375 1099.09570312 653.923828125 c 1
 996.1015625 550.9296875 l 1
 951.755859375 599.158203125 889.583984375 629.998046875 820.306640625 629.998046875 c 2
 425 630 l 2
 288.801757812 630 179.94140625 511.198242188 180 375 c 2
 180 374.779296875 l 2
 180.05859375 238.672851562 288.875 120 425 120 c 2
 820.240234375 120 l 2
 889.456054688 120 951.583007812 150.763671875 995.931640625 198.896484375 c 1
 1098.9140625 95.9140625 l 1
 1027.36230469 24.3935546875 928.703125 -20 820.1796875 -20 c 2
 425 -20 l 2
 207.838867188 -20 30.083984375 157.567382812 30 374.69140625 c 2
 30 375 l 2
 29.916015625 592.263671875 207.736328125 770 425 770 c 2
EndSplineSet
EndChar

StartChar: D
Encoding: 68 68 46
Width: 1017
Flags: HMW
LayerCount: 2
Fore
SplineSet
50 750 m 1
 612.5 750 l 2
 818.71875 750 987.573242188 581.21875 987.5 375 c 2
 987.5 374.745117188 l 2
 987.426757812 168.642578125 818.633789062 0 612.5 0 c 2
 50 0 l 1
 50 750 l 1
200 610 m 1
 200 140 l 1
 612.5 140 l 2
 737.59375 140 837.450195312 249.744140625 837.5 374.823242188 c 2
 837.5 375 l 2
 837.549804688 500.15234375 737.65234375 610 612.5 610 c 2
 200 610 l 1
EndSplineSet
EndChar

StartChar: E
Encoding: 69 69 47
Width: 840
Flags: HMW
LayerCount: 2
Fore
SplineSet
50 750 m 5
 800 750 l 5
 800 610 l 5
 200 610 l 5
 200 445 l 5
 800 445 l 5
 800 305 l 5
 200 305 l 5
 200 140 l 5
 800 140 l 5
 800 0 l 5
 50 0 l 5
 50 750 l 5
EndSplineSet
EndChar

StartChar: F
Encoding: 70 70 48
Width: 840
Flags: HMW
LayerCount: 2
Fore
SplineSet
50 750 m 5
 800 750 l 5
 800 610 l 5
 200 610 l 5
 200 445 l 5
 800 445 l 5
 800 305 l 5
 200 305 l 5
 200 0 l 5
 50 0 l 5
 50 750 l 5
EndSplineSet
EndChar

StartChar: A
Encoding: 65 65 49
Width: 971
Flags: HMW
LayerCount: 2
Fore
SplineSet
422.375 750 m 5
 549.05078125 750 l 5
 941.42578125 0 l 5
 780 0 l 5
 652.9921875 242.5 l 5
 318.43359375 242.5 l 5
 191.42578125 0 l 5
 30 0 l 5
 422.375 750 l 5
485.712890625 561.892578125 m 5
 391.7578125 382.5 l 5
 579.66796875 382.5 l 5
 485.712890625 561.892578125 l 5
EndSplineSet
EndChar

StartChar: G
Encoding: 71 71 50
Width: 1245
Flags: HMW
LayerCount: 2
Fore
SplineSet
425 770 m 2
 845 770 l 2
 953.631835938 770 1052.3828125 725.56640625 1123.97460938 653.974609375 c 1
 1020.9765625 550.9765625 l 1
 976.580078125 599.189453125 914.346679688 630 845 630 c 2
 425 630 l 2
 288.801757812 630 179.971679688 511.198242188 180 375 c 2
 180 374.89453125 l 2
 180.028320312 238.740234375 288.836914062 120 425 120 c 2
 820.106445312 120 l 2
 932.16015625 120 1026.86621094 197.586914062 1052.21777344 284.909179688 c 2
 1052.24414062 285 l 1
 622.5 285 l 1
 622.5 425 l 1
 1215 425 l 1
 1215 375 l 2
 1215 157.798828125 1037.36816406 -20 820.190429688 -20 c 2
 425 -20 l 2
 207.7890625 -20 30.0439453125 157.6484375 30 374.83984375 c 2
 30 375 l 2
 29.9560546875 592.263671875 207.736328125 770 425 770 c 2
EndSplineSet
EndChar

StartChar: H
Encoding: 72 72 51
Width: 925
Flags: HMW
LayerCount: 2
Fore
SplineSet
50 750 m 5
 200 750 l 5
 200 445 l 5
 725 445 l 5
 725 750 l 5
 875 750 l 5
 875 0 l 5
 725 0 l 5
 725 305 l 5
 200 305 l 5
 200 0 l 5
 50 0 l 5
 50 750 l 5
EndSplineSet
EndChar

StartChar: I
Encoding: 73 73 52
Width: 410
Flags: HMW
LayerCount: 2
Fore
SplineSet
30 750 m 1
 380 750 l 1
 380 610 l 1
 280 610 l 1
 280 140 l 1
 380 140 l 1
 380 0 l 1
 30 0 l 1
 30 140 l 1
 130 140 l 1
 130 610 l 1
 30 610 l 1
 30 750 l 1
EndSplineSet
EndChar

StartChar: L
Encoding: 76 76 53
Width: 830
Flags: HMW
LayerCount: 2
Fore
SplineSet
50 750 m 1
 200 750 l 1
 200 140 l 1
 800 140 l 1
 800 0 l 1
 50 0 l 1
 50 750 l 1
EndSplineSet
EndChar

StartChar: T
Encoding: 84 84 54
Width: 885
Flags: HMW
LayerCount: 2
Fore
SplineSet
30 750 m 5
 855 750 l 5
 855 610 l 5
 517.5 610 l 5
 517.5 0 l 5
 367.5 0 l 5
 367.5 610 l 5
 30 610 l 5
 30 750 l 5
EndSplineSet
EndChar

StartChar: Y
Encoding: 89 89 55
Width: 1016
Flags: HMW
LayerCount: 2
Fore
SplineSet
30 750 m 1
 236.4765625 750 l 1
 508.23828125 478.23828125 l 1
 780 750 l 1
 986.4765625 750 l 1
 583.23828125 346.76171875 l 1
 583.23828125 0 l 1
 433.23828125 0 l 1
 433.23828125 346.76171875 l 1
 30 750 l 1
EndSplineSet
EndChar

StartChar: P
Encoding: 80 80 56
Width: 870
Flags: HMW
LayerCount: 2
Fore
SplineSet
50 750 m 5
 608 750 l 6
 730.856445312 750 830.469726562 650.426757812 830.498046875 527.580078125 c 6
 830.49609375 527.2109375 l 6
 830.35546875 404.4609375 730.787109375 305 608 305 c 6
 200 305 l 5
 200 0 l 5
 50 0 l 5
 50 750 l 5
200 610 m 5
 200 445 l 5
 608 445 l 6
 648.01953125 445 680.481445312 487.4140625 680.5 527.435546875 c 6
 680.5 527.5 l 6
 680.518554688 567.541015625 648.041015625 610 608 610 c 6
 200 610 l 5
EndSplineSet
EndChar

StartChar: Z
Encoding: 90 90 57
Width: 922
Flags: HMW
LayerCount: 2
Fore
SplineSet
55 750 m 5
 892.640625 750 l 5
 362.640625 150 l 5
 867.3203125 150 l 5
 867.3203125 0 l 5
 30 0 l 5
 560 600 l 5
 55 600 l 5
 55 750 l 5
EndSplineSet
EndChar

StartChar: J
Encoding: 74 74 58
Width: 591
Flags: HMW
LayerCount: 2
Fore
SplineSet
391.5859375 750 m 1
 541.5859375 750 l 1
 541.5859375 250 l 2
 541.5859375 101.88671875 420.00390625 -20 271.932617188 -20 c 2
 220.5859375 -20 l 2
 146.471679688 -20 78.9716796875 10.4423828125 30 59.4140625 c 1
 133.072265625 162.486328125 l 1
 154.823242188 136.877929688 185.780273438 120 220.5859375 120 c 2
 271.768554688 120 l 2
 338.84375 120 391.5859375 182.8984375 391.5859375 250 c 2
 391.5859375 750 l 1
EndSplineSet
EndChar

StartChar: K
Encoding: 75 75 59
Width: 923
Flags: HMW
LayerCount: 2
Fore
SplineSet
50 750 m 1
 200 750 l 1
 200 425.189453125 l 1
 647.0625 750 l 1
 893.75 750 l 1
 377.61328125 375.005859375 l 1
 893.763671875 0 l 1
 647.072265625 0 l 1
 254.267578125 285.388671875 l 1
 200 245.9609375 l 1
 200 0 l 1
 50 0 l 1
 50 750 l 1
EndSplineSet
EndChar

StartChar: V
Encoding: 86 86 60
Width: 975
Flags: HMW
LayerCount: 2
Fore
SplineSet
30 750 m 1
 195.943359375 750 l 1
 487.970703125 192.419921875 l 1
 779.998046875 750 l 1
 945.94140625 750 l 1
 553.08203125 0 l 1
 422.859375 0 l 1
 30 750 l 1
EndSplineSet
EndChar

StartChar: W
Encoding: 87 87 61
Width: 1704
Flags: HMW
LayerCount: 2
Fore
SplineSet
30 750 m 5
 195.943359375 750 l 5
 487.970703125 192.419921875 l 5
 779.998046875 750 l 5
 924.943359375 750 l 5
 1216.97070312 192.419921875 l 5
 1508.99804688 750 l 5
 1674.94140625 750 l 5
 1282.08203125 0 l 5
 1151.859375 0 l 5
 852.470703125 571.556640625 l 5
 553.08203125 0 l 5
 422.859375 0 l 5
 30 750 l 5
EndSplineSet
EndChar

StartChar: M
Encoding: 77 77 62
Width: 1250
Flags: HMW
LayerCount: 2
Fore
SplineSet
50 750 m 1
 216.90234375 750 l 1
 605 173.767578125 l 1
 993.09765625 750 l 1
 1160 750 l 1
 1160 0 l 1
 1010 0 l 1
 1010 514.33203125 l 1
 666.205078125 0 l 1
 543.794921875 0 l 1
 200 514.33203125 l 1
 200 0 l 1
 50 0 l 1
 50 750 l 1
EndSplineSet
EndChar

StartChar: N
Encoding: 78 78 63
Width: 1000
Flags: HM
LayerCount: 2
Fore
SplineSet
50 750 m 1
 231.06640625 750 l 1
 800 181.06640625 l 1
 800 750 l 1
 950 750 l 1
 950 0 l 1
 768.93359375 0 l 1
 200 568.93359375 l 1
 200 0 l 1
 50 0 l 1
 50 750 l 1
EndSplineSet
EndChar

StartChar: U
Encoding: 85 85 64
Width: 1030
Flags: HMW
LayerCount: 2
Fore
SplineSet
50 750 m 5
 200 750 l 5
 200 365 l 6
 200 234.325195312 304.325195312 120 435 120 c 6
 595 120 l 6
 725.674804688 120 830 234.325195312 830 365 c 6
 830 750 l 5
 980 750 l 5
 980 365 l 6
 980 153.258789062 806.741210938 -20 595 -20 c 6
 435 -20 l 6
 223.258789062 -20 50 153.258789062 50 365 c 6
 50 750 l 5
EndSplineSet
EndChar

StartChar: S
Encoding: 83 83 65
Width: 795
Flags: HMW
LayerCount: 2
Fore
SplineSet
250 770 m 2
 570 770 l 2
 633.758789062 770 691.8828125 743.75390625 734.068359375 701.568359375 c 1
 630.91796875 598.41796875 l 1
 615.973632812 617.252929688 594.430664062 630 570 630 c 2
 250 630 l 2
 203.547851562 630 167.5 583.952148438 167.5 537.5 c 2
 167.5 537.370117188 l 2
 167.5 490.961914062 203.591796875 445 250 445 c 2
 520 445 l 2
 647.517578125 445 752.5 340.017578125 752.5 212.5 c 2
 752.5 212.3515625 l 2
 752.5 84.9013671875 647.46875 -20 520 -20 c 2
 200 -20 l 2
 136.241210938 -20 78.1171875 6.24609375 35.931640625 48.431640625 c 1
 139.08203125 151.58203125 l 1
 154.026367188 132.747070312 175.569335938 120 200 120 c 2
 520 120 l 2
 566.409179688 120 602.5 165.962890625 602.5 212.370117188 c 2
 602.5 212.5 l 2
 602.5 258.952148438 566.452148438 305 520 305 c 2
 250 305 l 2
 122.504882812 305 17.5 409.944335938 17.5 537.431640625 c 2
 17.5 537.5 l 2
 17.5 665.017578125 122.482421875 770 250 770 c 2
EndSplineSet
EndChar

StartChar: dollar
Encoding: 36 36 66
Width: 795
Flags: HMW
LayerCount: 2
Fore
SplineSet
347.5 800 m 1
 447.5 800 l 1
 447.5 770 l 1
 592.5 770 l 2
 656.258789062 770 714.3828125 743.75390625 756.568359375 701.568359375 c 1
 653.41796875 598.41796875 l 1
 638.473632812 617.252929688 616.930664062 630 592.5 630 c 2
 447.5 630 l 1
 447.5 445 l 1
 532.5 445 l 2
 660.017578125 445 765 340.017578125 765 212.5 c 2
 765 212.3515625 l 2
 765 84.900390625 659.96875 -20 532.5 -20 c 2
 447.5 -20 l 1
 447.5 -50 l 1
 347.5 -50 l 1
 347.5 -20 l 1
 202.5 -20 l 2
 138.741210938 -20 80.6171875 6.24609375 38.431640625 48.431640625 c 1
 141.58203125 151.58203125 l 1
 156.526367188 132.747070312 178.069335938 120 202.5 120 c 2
 347.5 120 l 1
 347.5 305 l 1
 262.5 305 l 2
 135.004882812 305 30 409.944335938 30 537.431640625 c 2
 30 537.5 l 2
 30 665.017578125 134.982421875 770 262.5 770 c 2
 347.5 770 l 1
 347.5 800 l 1
347.5 630 m 1
 262.5 630 l 2
 216.047851562 630 180 583.952148438 180 537.5 c 2
 180 537.369140625 l 2
 180 490.961914062 216.091796875 445 262.5 445 c 2
 347.5 445 l 1
 347.5 630 l 1
447.5 305 m 1
 447.5 120 l 1
 532.5 120 l 2
 578.909179688 120 615 165.962890625 615 212.37109375 c 2
 615 212.5 l 2
 615 258.952148438 578.952148438 305 532.5 305 c 2
 447.5 305 l 1
EndSplineSet
EndChar

StartChar: percent
Encoding: 37 37 67
Width: 975
Flags: HMW
LayerCount: 2
Fore
SplineSet
781.224609375 769.638671875 m 1
 878.775390625 662.361328125 l 1
 128.775390625 -19.638671875 l 1
 31.224609375 87.638671875 l 1
 781.224609375 769.638671875 l 1
240 770 m 0
 335.76171875 770 415 690.76171875 415 595 c 0
 415 499.23828125 335.76171875 420 240 420 c 0
 144.23828125 420 65 499.23828125 65 595 c 0
 65 690.76171875 144.23828125 770 240 770 c 0
240 630 m 0
 225.3046875 630 215 609.6953125 215 595 c 0
 215 580.3046875 225.3046875 560 240 560 c 0
 254.6953125 560 265 580.3046875 265 595 c 0
 265 609.6953125 254.6953125 630 240 630 c 0
679.75 330 m 0
 775.51171875 330 854.75 250.76171875 854.75 155 c 0
 854.75 59.23828125 775.51171875 -20 679.75 -20 c 0
 583.98828125 -20 504.75 59.23828125 504.75 155 c 0
 504.75 250.76171875 583.98828125 330 679.75 330 c 0
679.75 190 m 0
 665.0546875 190 654.75 169.6953125 654.75 155 c 0
 654.75 140.3046875 665.0546875 120 679.75 120 c 0
 694.4453125 120 704.75 140.3046875 704.75 155 c 0
 704.75 169.6953125 694.4453125 190 679.75 190 c 0
EndSplineSet
EndChar

StartChar: ampersand
Encoding: 38 38 68
Width: 882
Flags: HMW
LayerCount: 2
Fore
SplineSet
266 770 m 6
 536 770 l 6
 613.828125 770 680.439453125 716.0703125 700.10546875 643.970703125 c 5
 555.53515625 605.234375 l 5
 553.685546875 616.58203125 546.287109375 630 536 630 c 6
 266 630 l 6
 254.06640625 630 246 611.93359375 246 600 c 6
 246 599.857421875 l 6
 246 593.861328125 248.08203125 586.357421875 251.619140625 580.37109375 c 6
 713.455078125 206.134765625 l 5
 760.375 244.130859375 l 5
 851.62890625 131.443359375 l 5
 828.62109375 112.8125 l 5
 852.65625 93.3359375 l 5
 761.37109375 -19.390625 l 5
 711.87109375 20.701171875 l 5
 670.552734375 -5.0673828125 621.900390625 -20 570 -20 c 6
 300 -20 l 6
 151.859375 -20 30 101.62890625 30 249.740234375 c 6
 30 250 l 6
 30 343.521484375 78.486328125 426.49609375 151.494140625 475.015625 c 5
 151.421875 475.08203125 l 6
 117.494140625 506.2421875 96 550.823242188 96 599.8671875 c 6
 96 600 l 6
 96 693 173 770 266 770 c 6
272.6484375 376.44140625 m 5
 219.03515625 362.258789062 180 307.7265625 180 250 c 6
 180 249.807617188 l 6
 180 182.717773438 232.90234375 120 300 120 c 6
 570 120 l 6
 575.94921875 120 581.78125 120.50390625 587.4765625 121.451171875 c 5
 272.6484375 376.44140625 l 5
EndSplineSet
EndChar

StartChar: quotesingle
Encoding: 39 39 69
Width: 250
Flags: HMW
LayerCount: 2
Fore
SplineSet
50 500 m 5
 50 750 l 5
 200 750 l 5
 200 500 l 5
 50 500 l 5
EndSplineSet
EndChar

StartChar: parenleft
Encoding: 40 40 70
Width: 389
Flags: HMW
LayerCount: 2
Fore
SplineSet
279.83984375 800 m 1
 359.052734375 678.376953125 l 1
 336.948242188 663.248046875 316.194335938 646.012695312 297.158203125 626.9765625 c 0
 222.123046875 551.94140625 180 445.248046875 180 339.1328125 c 0
 180 233.017578125 222.123046875 126.326171875 297.158203125 51.291015625 c 0
 315.80078125 32.6484375 336.08984375 15.7314453125 357.681640625 0.830078125 c 1
 277.955078125 -120.490234375 l 1
 246.896484375 -100.083007812 217.760742188 -76.4443359375 191.091796875 -49.775390625 c 0
 87.966796875 53.349609375 30 193.29296875 30 339.1328125 c 0
 30 484.97265625 87.966796875 624.91796875 191.091796875 728.04296875 c 0
 218.30078125 755.251953125 248.073242188 779.313476562 279.83984375 800 c 1
EndSplineSet
EndChar

StartChar: parenright
Encoding: 41 41 71
Width: 389
Flags: HMW
LayerCount: 2
Fore
SplineSet
109.212890625 800 m 1
 30 678.376953125 l 1
 52.1044921875 663.248046875 72.8583984375 646.012695312 91.89453125 626.9765625 c 0
 166.9296875 551.94140625 209.052734375 445.248046875 209.052734375 339.1328125 c 0
 209.052734375 233.017578125 166.9296875 126.326171875 91.89453125 51.291015625 c 0
 73.251953125 32.6484375 52.962890625 15.7314453125 31.37109375 0.830078125 c 1
 111.09765625 -120.490234375 l 1
 142.15625 -100.083007812 171.291992188 -76.4443359375 197.9609375 -49.775390625 c 0
 301.0859375 53.349609375 359.052734375 193.29296875 359.052734375 339.1328125 c 0
 359.052734375 484.97265625 301.0859375 624.91796875 197.9609375 728.04296875 c 0
 170.751953125 755.251953125 140.979492188 779.313476562 109.212890625 800 c 1
EndSplineSet
EndChar

StartChar: asterisk
Encoding: 42 42 72
Width: 477
Flags: HMW
LayerCount: 2
Fore
SplineSet
178.751953125 750 m 1
 298.751953125 750 l 1
 298.751953125 632.583984375 l 1
 410.421875 668.8671875 l 1
 447.50390625 554.740234375 l 1
 335.833984375 518.45703125 l 1
 404.849609375 423.462890625 l 1
 307.767578125 352.9296875 l 1
 238.751953125 451.921875 l 1
 169.736328125 352.9296875 l 1
 72.654296875 423.462890625 l 1
 145.669921875 518.45703125 l 1
 30 554.740234375 l 1
 67.08203125 668.8671875 l 1
 178.751953125 632.583984375 l 1
 178.751953125 750 l 1
EndSplineSet
EndChar

StartChar: plus
Encoding: 43 43 73
Width: 810
Flags: HMW
LayerCount: 2
Fore
SplineSet
330 700 m 1
 480 700 l 1
 480 445 l 1
 780 445 l 5
 780 305 l 1
 480 305 l 1
 480 50 l 1
 330 50 l 1
 330 305 l 1
 30 305 l 1
 30 445 l 1
 330 445 l 1
 330 700 l 1
EndSplineSet
EndChar

StartChar: comma
Encoding: 44 44 74
Width: 276
Flags: HMW
LayerCount: 2
Fore
SplineSet
46.603515625 80 m 0
 46.603515625 135.19140625 91.412109375 180 146.603515625 180 c 0
 201.794921875 180 246.603515625 135.19140625 246.603515625 80 c 0
 246.603515625 66.5927734375 243.916015625 53.7353515625 239.12109375 42.046875 c 2
 170.953125 -145.240234375 l 1
 30 -93.9375 l 1
 69.939453125 15.79296875 l 1
 55.3935546875 33.1611328125 46.603515625 55.595703125 46.603515625 80 c 0
EndSplineSet
EndChar

StartChar: period
Encoding: 46 46 75
Width: 260
Flags: HMW
LayerCount: 2
Fore
SplineSet
230 80 m 0
 230 24.80859375 185.19140625 -20 130 -20 c 0
 74.80859375 -20 30 24.80859375 30 80 c 0
 30 135.19140625 74.80859375 180 130 180 c 0
 185.19140625 180 230 135.19140625 230 80 c 0
EndSplineSet
EndChar

StartChar: hyphen
Encoding: 45 45 76
Width: 735
Flags: HMW
LayerCount: 2
Fore
SplineSet
30 445 m 5
 705 445 l 5
 705 305 l 5
 30 305 l 5
 30 445 l 5
EndSplineSet
EndChar

StartChar: slash
Encoding: 47 47 77
Width: 598
Flags: HMW
LayerCount: 2
Fore
SplineSet
405 750 m 5
 568.234375 750 l 5
 193.234375 0 l 5
 30 0 l 5
 405 750 l 5
EndSplineSet
EndChar

StartChar: colon
Encoding: 58 58 78
Width: 300
Flags: HMW
LayerCount: 2
Fore
SplineSet
250 80 m 4
 250 24.80859375 205.19140625 -20 150 -20 c 4
 94.80859375 -20 50 24.80859375 50 80 c 4
 50 135.19140625 94.80859375 180 150 180 c 4
 205.19140625 180 250 135.19140625 250 80 c 4
250 420 m 4
 250 364.80859375 205.19140625 320 150 320 c 4
 94.80859375 320 50 364.80859375 50 420 c 4
 50 475.19140625 94.80859375 520 150 520 c 4
 205.19140625 520 250 475.19140625 250 420 c 4
EndSplineSet
EndChar

StartChar: semicolon
Encoding: 59 59 79
Width: 276
Flags: HMW
LayerCount: 2
Fore
SplineSet
246.603515625 420 m 0
 246.603515625 364.80859375 201.794921875 320 146.603515625 320 c 0
 91.412109375 320 46.603515625 364.80859375 46.603515625 420 c 0
 46.603515625 475.19140625 91.412109375 520 146.603515625 520 c 0
 201.794921875 520 246.603515625 475.19140625 246.603515625 420 c 0
46.603515625 80 m 0
 46.603515625 135.19140625 91.412109375 180 146.603515625 180 c 0
 201.794921875 180 246.603515625 135.19140625 246.603515625 80 c 0
 246.603515625 66.5927734375 243.916015625 53.7353515625 239.12109375 42.046875 c 2
 170.953125 -145.240234375 l 1
 30 -93.9375 l 1
 69.939453125 15.79296875 l 1
 55.3935546875 33.1611328125 46.603515625 55.595703125 46.603515625 80 c 0
EndSplineSet
EndChar

StartChar: less
Encoding: 60 60 81
Width: 739
Flags: HMW
LayerCount: 2
Fore
SplineSet
660.810546875 667 m 5
 709.388671875 530.37890625 l 5
 270.701171875 374.400390625 l 5
 709.388671875 218.421875 l 5
 660.810546875 81.80078125 l 5
 30 306.08984375 l 5
 30 442.7109375 l 5
 660.810546875 667 l 5
EndSplineSet
EndChar

StartChar: greater
Encoding: 62 62 82
Width: 739
Flags: HMW
LayerCount: 2
Fore
SplineSet
78.578125 667 m 5
 30 530.37890625 l 5
 468.6875 374.400390625 l 5
 30 218.421875 l 5
 78.578125 81.80078125 l 5
 709.388671875 306.08984375 l 5
 709.388671875 442.7109375 l 5
 78.578125 667 l 5
EndSplineSet
EndChar

StartChar: equal
Encoding: 61 61 83
Width: 735
Flags: HMW
LayerCount: 2
Fore
SplineSet
30 568 m 1
 705 568 l 1
 705 428 l 1
 30 428 l 1
 30 568 l 1
30 303 m 1
 705 303 l 1
 705 163 l 1
 30 163 l 1
 30 303 l 1
EndSplineSet
EndChar

StartChar: question
Encoding: 63 63 84
Width: 719
Flags: HMW
LayerCount: 2
Fore
SplineSet
249.958984375 770 m 6
 470.094726562 770 l 6
 590.647460938 770 689.958007812 670.569335938 689.958007812 550 c 6
 689.958007812 549.833007812 l 6
 689.958007812 468.182617188 644.366210938 400.146484375 577.392578125 362.397460938 c 6
 467.298828125 300.34375 l 6
 446.4296875 286.641601562 434.9609375 276.743164062 434.9609375 251.099609375 c 6
 435 250 l 5
 285 250 l 5
 284.958984375 251.099609375 l 6
 284.958984375 332.856445312 332.95703125 377.5 397.361328125 423.21875 c 5
 507.447265625 483.28515625 l 6
 529.215820312 495.162109375 539.956054688 524.23828125 539.956054688 549.76953125 c 6
 539.956054688 550 l 6
 539.956054688 589.506835938 509.568359375 629.998046875 470.080078125 629.998046875 c 6
 249.958984375 629.998046875 l 6
 211.475585938 629.998046875 181.6171875 591.696289062 180.037109375 553.1953125 c 5
 30 553.1953125 l 5
 31.73828125 672.36328125 130.413085938 770 249.958984375 770 c 6
260.026367188 80 m 4
 260.026367188 135.228515625 304.797851562 180 360.026367188 180 c 4
 415.254882812 180 460.026367188 135.228515625 460.026367188 80 c 4
 460.026367188 24.771484375 415.254882812 -20 360.026367188 -20 c 4
 304.797851562 -20 260.026367188 24.771484375 260.026367188 80 c 4
EndSplineSet
EndChar

StartChar: at
Encoding: 64 64 85
Width: 1415
Flags: HMW
LayerCount: 2
Fore
SplineSet
485 780 m 2
 930.154296875 780 l 2
 1048.09082031 780 1161.26464844 733.05859375 1244.66210938 649.662109375 c 0
 1328.09472656 566.228515625 1375 452.9921875 1375 335 c 2
 1375 135 l 2
 1375 32.4013671875 1290.27539062 -52.5 1187.70019531 -52.5 c 2
 1076.24902344 -52.5 l 2
 976.418945312 -52.5 893.909179688 27.7392578125 888.954101562 126.541015625 c 2
 888.94921875 133.640625 l 1
 869.907226562 122.114257812 843.342773438 115 818.905273438 115 c 2
 596.25 115 l 2
 475.682617188 115 376.25 214.30859375 376.25 334.860351562 c 2
 376.25 335 l 2
 376.25 455.614257812 475.635742188 555 596.25 555 c 2
 818.875976562 555 l 2
 859.630859375 555 904.950195312 539.594726562 930.833984375 514.89453125 c 1
 932.75 535 l 1
 1038.75 535 l 1
 1038.75 135 l 1
 1044.53710938 114.190429688 1054.65039062 87.5 1076.24902344 87.5 c 2
 1187.60546875 87.5 l 2
 1209.15039062 87.5 1225 113.436523438 1225 135 c 2
 1225 335 l 2
 1225 413.267578125 1193.93847656 493.251953125 1138.59472656 548.595703125 c 0
 1083.27929688 603.912109375 1008.34179688 640 930.116210938 640 c 2
 485 640 l 2
 408.311523438 640 338.771484375 606.248046875 286.49609375 558.857421875 c 0
 227.107421875 505.018554688 190 422.123046875 190 335 c 2
 190 334.876953125 l 2
 190 256.6484375 221.08984375 176.71875 276.404296875 121.404296875 c 0
 331.748046875 66.060546875 406.732421875 30 485 30 c 1
 485 -110 l 1
 367.0078125 -110 253.771484375 -63.095703125 170.337890625 20.337890625 c 0
 86.9384765625 103.737304688 40 216.915039062 40 334.85546875 c 2
 40 335 l 2
 40 461.977539062 93.80859375 576.921875 179.763671875 658.169921875 c 0
 259.57421875 733.610351562 367.099609375 780 485 780 c 2
596.25 415 m 2
 556.702148438 415 526.25 374.547851562 526.25 335 c 2
 526.25 334.846679688 l 2
 526.25 295.34765625 556.752929688 255 596.25 255 c 2
 818.862304688 255 l 2
 858.307617188 255 888.75 295.389648438 888.75 334.854492188 c 2
 888.75 335 l 2
 888.75 374.500976562 858.37109375 415 818.891601562 415 c 2
 596.25 415 l 2
EndSplineSet
EndChar

StartChar: backslash
Encoding: 92 92 86
Width: 598
Flags: HMW
LayerCount: 2
Fore
SplineSet
193.234375 750 m 1
 30 750 l 1
 405 0 l 1
 568.234375 0 l 1
 193.234375 750 l 1
EndSplineSet
EndChar

StartChar: bracketleft
Encoding: 91 91 87
Width: 485
Flags: HMW
LayerCount: 2
Fore
SplineSet
30 800 m 1
 455 800 l 1
 455 660 l 1
 180 660 l 1
 180 15 l 1
 455 15 l 1
 455 -125 l 1
 30 -125 l 1
 30 800 l 1
EndSplineSet
EndChar

StartChar: bracketright
Encoding: 93 93 88
Width: 525
Flags: HMW
LayerCount: 2
Fore
SplineSet
475 800 m 1
 50 800 l 1
 50 660 l 1
 325 660 l 1
 325 15 l 1
 50 15 l 1
 50 -125 l 1
 475 -125 l 1
 475 800 l 1
EndSplineSet
EndChar

StartChar: asciicircum
Encoding: 94 94 89
Width: 831
Flags: HMW
LayerCount: 2
Fore
SplineSet
368 750 m 1
 466 750 l 1
 801.4765625 437.421875 l 1
 588.46484375 437.421875 l 1
 416.6328125 597.095703125 l 1
 243.7265625 437.421875 l 1
 30 437.421875 l 1
 368 750 l 1
EndSplineSet
EndChar

StartChar: underscore
Encoding: 95 95 90
Width: 735
Flags: HMW
LayerCount: 2
Fore
SplineSet
30 -25 m 1
 705 -25 l 1
 705 -165 l 1
 30 -165 l 1
 30 -25 l 1
EndSplineSet
EndChar

StartChar: grave
Encoding: 96 96 91
Width: 299
Flags: HMW
LayerCount: 2
Fore
SplineSet
30 750 m 1
 199.7421875 750 l 1
 269.080078125 575 l 1
 159.337890625 575 l 1
 30 750 l 1
EndSplineSet
EndChar

StartChar: bar
Encoding: 124 124 92
Width: 250
Flags: HW
LayerCount: 2
Fore
SplineSet
50 800 m 1
 200 800 l 1
 200 -125 l 1
 50 -125 l 1
 50 800 l 1
EndSplineSet
EndChar

StartChar: braceleft
Encoding: 123 123 93
Width: 435
Flags: HW
LayerCount: 2
Fore
SplineSet
405 800 m 1
 405 660 l 1
 341.979492188 660 292.5 600.520507812 292.5 537.5 c 2
 292.5 530 l 2
 292.5 454.236328125 259.748046875 385.583984375 207.751953125 337.5 c 1
 259.748046875 289.416015625 292.5 220.763671875 292.5 145 c 2
 292.5 137.5 l 2
 292.5 74.4794921875 341.979492188 15 405 15 c 1
 405 -125 l 1
 260.9140625 -125 142.5 -6.5859375 142.5 137.5 c 2
 142.5 145 l 2
 142.5 208.020507812 93.0205078125 267.5 30 267.5 c 1
 30 407.5 l 1
 93.0205078125 407.5 142.5 466.979492188 142.5 530 c 2
 142.5 537.5 l 2
 142.5 681.5859375 260.9140625 800 405 800 c 1
EndSplineSet
EndChar

StartChar: braceright
Encoding: 125 125 94
Width: 435
Flags: HW
LayerCount: 2
Fore
SplineSet
30 800 m 1
 30 660 l 1
 93.0205078125 660 142.5 600.520507812 142.5 537.5 c 2
 142.5 530 l 2
 142.5 454.236328125 175.251953125 385.583984375 227.248046875 337.5 c 1
 175.251953125 289.416015625 142.5 220.763671875 142.5 145 c 2
 142.5 137.5 l 2
 142.5 74.4794921875 93.0205078125 15 30 15 c 1
 30 -125 l 1
 174.0859375 -125 292.5 -6.5859375 292.5 137.5 c 2
 292.5 145 l 2
 292.5 208.020507812 341.979492188 267.5 405 267.5 c 1
 405 407.5 l 1
 341.979492188 407.5 292.5 466.979492188 292.5 530 c 2
 292.5 537.5 l 2
 292.5 681.5859375 174.0859375 800 30 800 c 1
EndSplineSet
EndChar

StartChar: asciitilde
Encoding: 126 126 95
Width: 751
Flags: HW
LayerCount: 2
Fore
SplineSet
204.668945312 487.033203125 m 0
 280.018554688 500.319335938 354.47265625 479.125976562 413.666992188 434.323242188 c 0
 446.46875 409.57421875 482.608398438 394.44921875 522.020507812 401.3984375 c 0
 561.432617188 408.34765625 593.103515625 434.453125 612.580078125 469.397460938 c 1
 724.697265625 384.538085938 l 1
 684.396484375 322.192382812 621.681640625 276.811523438 546.331054688 263.525390625 c 0
 470.981445312 250.239257812 396.52734375 271.432617188 337.333007812 316.235351562 c 0
 304.2109375 339.133789062 268.391601562 356.109375 228.979492188 349.16015625 c 0
 189.567382812 342.2109375 157.896484375 316.10546875 138.419921875 281.161132812 c 1
 26.302734375 366.020507812 l 1
 66.603515625 428.366210938 129.318359375 473.747070312 204.668945312 487.033203125 c 0
EndSplineSet
EndChar

StartChar: exclamdown
Encoding: 161 161 96
Width: 300
Flags: HW
LayerCount: 2
Fore
SplineSet
75 350 m 1
 75 -150 l 1
 225 -150 l 1
 225 350 l 1
 75 350 l 1
50 520 m 0
 50 464.771484375 94.771484375 420 150 420 c 0
 205.228515625 420 250 464.771484375 250 520 c 0
 250 575.228515625 205.228515625 620 150 620 c 0
 94.771484375 620 50 575.228515625 50 520 c 0
EndSplineSet
EndChar

StartChar: questiondown
Encoding: 191 191 97
Width: 719
Flags: HW
LayerCount: 2
Fore
SplineSet
469.999023438 -170 m 2
 249.86328125 -170 l 2
 129.310546875 -170 30 -70.5693359375 30 50 c 2
 30 50.1669921875 l 2
 30 131.817382812 75.591796875 199.853515625 142.565429688 237.602539062 c 2
 252.659179688 299.65625 l 2
 273.528320312 313.358398438 284.997070312 323.256835938 284.997070312 348.900390625 c 2
 284.958007812 350 l 1
 434.958007812 350 l 1
 434.999023438 348.900390625 l 2
 434.999023438 267.143554688 387.000976562 222.5 322.596679688 176.78125 c 1
 212.510742188 116.71484375 l 2
 190.7421875 104.837890625 180.001953125 75.76171875 180.001953125 50.23046875 c 2
 180.001953125 50 l 2
 180.001953125 10.4931640625 210.389648438 -29.998046875 249.877929688 -29.998046875 c 2
 469.999023438 -29.998046875 l 2
 508.482421875 -29.998046875 538.340820312 8.3037109375 539.920898438 46.8046875 c 1
 689.958007812 46.8046875 l 1
 688.219726562 -72.36328125 589.544921875 -170 469.999023438 -170 c 2
459.931640625 520 m 0
 459.931640625 464.771484375 415.16015625 420 359.931640625 420 c 0
 304.703125 420 259.931640625 464.771484375 259.931640625 520 c 0
 259.931640625 575.228515625 304.703125 620 359.931640625 620 c 0
 415.16015625 620 459.931640625 575.228515625 459.931640625 520 c 0
EndSplineSet
EndChar

StartChar: uni00AD
Encoding: 173 173 98
Width: 660
Flags: HW
LayerCount: 2
Fore
SplineSet
30 445 m 1
 630 445 l 1
 630 305 l 1
 30 305 l 1
 30 445 l 1
EndSplineSet
EndChar

StartChar: brokenbar
Encoding: 166 166 99
Width: 250
Flags: HW
LayerCount: 2
Fore
SplineSet
50 800 m 1
 200 800 l 1
 200 412.5 l 1
 50 412.5 l 1
 50 800 l 1
50 262.5 m 1
 200 262.5 l 1
 200 -125 l 1
 50 -125 l 1
 50 262.5 l 1
EndSplineSet
EndChar

StartChar: cent
Encoding: 162 162 100
Width: 770
Flags: HW
LayerCount: 2
Fore
SplineSet
365 708 m 1
 465 708 l 1
 465 608 l 1
 550.08203125 608 l 2
 624.639648438 608 692.142578125 577.755859375 740.994140625 528.87109375 c 1
 637.2578125 425.134765625 l 1
 615.404296875 450.86328125 584.453125 468 550.1328125 468 c 2
 465 468 l 1
 465 208 l 1
 550.078125 208 l 2
 584.358398438 208 615.282226562 225.077148438 637.140625 250.736328125 c 1
 740.876953125 147 l 1
 692.049804688 98.193359375 624.622070312 68 550.150390625 68 c 2
 465 68 l 1
 465 -32 l 1
 365 -32 l 1
 365 68 l 1
 300 68 l 2
 150.918945312 68 30.029296875 188.825195312 30 337.892578125 c 2
 30 338 l 2
 29.970703125 487.1171875 150.8828125 608 300 608 c 2
 365 608 l 1
 365 708 l 1
365 468 m 1
 300 468 l 2
 233.725585938 468 179.96484375 404.274414062 180 338 c 2
 180 337.87109375 l 2
 180.03515625 271.642578125 233.768554688 208 300 208 c 2
 365 208 l 1
 365 468 l 1
EndSplineSet
EndChar

StartChar: sterling
Encoding: 163 163 101
Width: 922
Flags: HW
LayerCount: 2
Fore
SplineSet
304.90234375 770 m 6
 592.673828125 770 l 6
 718.9765625 770 826.348632812 683.045898438 857.96875 566.224609375 c 5
 713.48046875 527.509765625 l 5
 699.729492188 583.788085938 651.466796875 630 592.666992188 630 c 6
 304.90234375 630 l 6
 235.032226562 630 180 564.967773438 180 495.09765625 c 6
 180 494.908203125 l 6
 180 459.89453125 193.916992188 426.112304688 216.53515625 401.134765625 c 4
 224.62109375 392.90234375 232.20703125 384.17578125 239.19921875 375 c 5
 667.615234375 375 l 5
 667.615234375 235 l 5
 287.466796875 235 l 6
 287.466796875 234.9609375 287.465820312 234.921875 287.465820312 234.8828125 c 6
 287.465820312 234.784179688 l 6
 287.465820312 201.114257812 279.5546875 169.03125 266.31640625 140 c 5
 737.615234375 140 l 6
 758.583007812 140 776.9921875 151.373046875 789.6640625 167.951171875 c 5
 892.845703125 64.76953125 l 5
 852.921875 24.8466796875 797.921875 0 737.615234375 0 c 6
 50 0 l 5
 50 140 l 5
 98.28125 140 137.459960938 186.453125 137.459960938 234.704101562 c 6
 137.459960938 234.819335938 l 6
 137.459960938 234.87890625 137.462890625 234.939453125 137.46484375 235 c 5
 30 235 l 5
 30 375 l 5
 57.921875 375 l 5
 57.90625 375.032226562 57.8896484375 375.064453125 57.8740234375 375.096679688 c 4
 40.0693359375 411.383789062 30 452.063476562 30 494.93359375 c 6
 30 495.09765625 l 6
 30 646.034179688 153.965820312 770 304.90234375 770 c 6
EndSplineSet
EndChar

StartChar: currency
Encoding: 164 164 102
Width: 853
Flags: HW
LayerCount: 2
Fore
SplineSet
132.53125 612 m 1
 190.130859375 554.400390625 l 1
 224.26171875 572.551757812 263.075195312 582.87890625 304.12109375 582.87890625 c 2
 549.23828125 582.87890625 l 2
 590.241210938 582.87890625 629.013671875 572.534179688 663.111328125 554.400390625 c 1
 720.7109375 612 l 1
 823.2421875 509.46875 l 1
 765.642578125 451.869140625 l 1
 783.794921875 417.73828125 794.12109375 378.924804688 794.12109375 337.87890625 c 2
 794.12109375 337.766601562 l 2
 794.12109375 296.76171875 783.778320312 257.98828125 765.642578125 223.888671875 c 1
 823.2421875 166.2890625 l 1
 720.7109375 63.7578125 l 1
 663.111328125 121.357421875 l 1
 629.01171875 103.221679688 590.235351562 92.87890625 549.229492188 92.87890625 c 2
 304.12109375 92.87890625 l 2
 263.075195312 92.87890625 224.26171875 103.206054688 190.130859375 121.357421875 c 1
 132.53125 63.7578125 l 1
 30 166.2890625 l 1
 87.599609375 223.888671875 l 1
 69.4677734375 257.982421875 59.12109375 296.749023438 59.12109375 337.74609375 c 2
 59.12109375 337.87890625 l 2
 59.12109375 378.924804688 69.4482421875 417.73828125 87.599609375 451.869140625 c 1
 30 509.46875 l 1
 132.53125 612 l 1
304.12109375 442.87890625 m 2
 250.765625 442.87890625 209.12109375 391.234375 209.12109375 337.87890625 c 2
 209.12109375 337.77734375 l 2
 209.12109375 284.458007812 250.799804688 232.87890625 304.12109375 232.87890625 c 2
 549.232421875 232.87890625 l 2
 602.5 232.87890625 644.12109375 284.493164062 644.12109375 337.775390625 c 2
 644.12109375 337.87890625 l 2
 644.12109375 391.189453125 602.546875 442.87890625 549.255859375 442.87890625 c 2
 304.12109375 442.87890625 l 2
EndSplineSet
EndChar

StartChar: logicalnot
Encoding: 172 172 103
Width: 735
Flags: HW
LayerCount: 2
Fore
SplineSet
30 445 m 1
 705 445 l 1
 705 195 l 1
 555 195 l 1
 555 305 l 1
 30 305 l 1
 30 445 l 1
EndSplineSet
EndChar

StartChar: acute
Encoding: 180 180 104
Width: 299
Flags: HW
LayerCount: 2
Fore
SplineSet
269.080078125 750 m 5
 99.337890625 750 l 5
 30 575 l 5
 139.7421875 575 l 5
 269.080078125 750 l 5
EndSplineSet
EndChar
